<svg xmlns="http://www.w3.org/2000/svg" xmlns:xlink="http://www.w3.org/1999/xlink" viewBox="0,0,256,256" width="50px" height="50px" fill-rule="nonzero"><g fill="none" fill-rule="nonzero" stroke="none" stroke-width="1" stroke-linecap="butt" stroke-linejoin="miter" stroke-miterlimit="10" stroke-dasharray="" stroke-dashoffset="0" font-family="none" font-weight="none" font-size="none" text-anchor="none" style="mix-blend-mode: normal"><g transform="scale(2.56,2.56)"><path d="M84.71,72.27c-14.43,20.89 -44.15,24.54 -45.41,24.69c-0.24,0.03 -0.5,0.04 -0.75,0.04c-2.66,0 -5.02,-1.59 -6.02,-4.06c0,0 -15.31,-36.96 -15.71,-38.18c-9.21,-27.93 6.79,-40.27 11.92,-43.39c4.77,-2.9 10.23,-4.37 16.24,-4.37c8.88,0 18.52,3.3 26.45,9.05c2.41,1.75 3.32,4.9 2.22,7.67c-0.14,0.35 -0.31,0.68 -0.5,0.99c0.45,0.18 0.88,0.4 1.28,0.68c10.19,6.92 13.77,16.08 14.98,22.55c1.61,8.64 -0.14,17.74 -4.7,24.33z" fill="#838694" opacity="0.35"></path><path d="M82.71,70.27c-14.43,20.89 -44.15,24.54 -45.41,24.69c-0.24,0.03 -0.5,0.04 -0.75,0.04c-2.66,0 -5.02,-1.59 -6.02,-4.06c0,0 -15.31,-36.96 -15.71,-38.18c-9.21,-27.93 6.79,-40.27 11.92,-43.39c4.77,-2.9 10.23,-4.37 16.24,-4.37c8.88,0 18.52,3.3 26.45,9.05c2.41,1.75 3.32,4.9 2.22,7.67c-0.14,0.35 -0.31,0.68 -0.5,0.99c0.45,0.18 0.88,0.4 1.28,0.68c10.19,6.92 13.77,16.08 14.98,22.55c1.61,8.64 -0.14,17.74 -4.7,24.33z" fill="#000000"></path><path d="M36.553,88.5l-13.176,-32.426c0,0 34.293,11.747 46.93,-8.091c5.626,-8.831 -1.534,-19.22 -1.534,-19.22c14.846,10.083 15.263,28.157 8.59,37.814c-12.931,18.714 -40.81,21.923 -40.81,21.923z" fill="#000000"></path><path d="M46.978,30.108c6.034,-8.014 24.598,4.243 17.636,13.199c-6.962,8.956 -24.361,-4.267 -17.636,-13.199z" fill="#000000"></path><path d="M20.991,50.729c-6.324,-19.18 0.374,-30.476 9.127,-35.803c10.387,-6.321 24.846,-3.338 35.494,4.387c-26.864,-3.541 -33.109,10.8 -19.268,35.021z" fill="#000000"></path><path d="M36.552,90c-0.604,0 -1.158,-0.365 -1.389,-0.936l-13.176,-32.426c-0.221,-0.544 -0.104,-1.168 0.3,-1.595c0.403,-0.428 1.019,-0.581 1.576,-0.389c0.331,0.112 33.327,11.127 45.18,-7.478c5.013,-7.869 -1.44,-17.469 -1.506,-17.564c-0.407,-0.595 -0.334,-1.396 0.174,-1.907c0.51,-0.511 1.309,-0.589 1.905,-0.184c8.768,5.956 11.841,13.803 12.875,19.336c1.376,7.362 -0.08,15.053 -3.894,20.572c-13.166,19.054 -40.707,22.426 -41.873,22.561c-0.057,0.007 -0.115,0.01 -0.172,0.01zM25.946,58.411l11.554,28.436c5.26,-0.842 27.687,-5.287 38.629,-21.122c3.369,-4.876 4.645,-11.723 3.413,-18.315c-0.693,-3.708 -2.409,-8.574 -6.516,-13.038c1.241,4.04 1.738,9.407 -1.453,14.417c-10.993,17.253 -36.719,12.056 -45.627,9.622z" fill="#838694"></path><path d="M58.451,47.765c-3.024,0.001 -6.203,-1.247 -8.788,-3.225c-4.715,-3.607 -7.942,-9.944 -3.884,-15.334v0c1.844,-2.449 4.804,-3.551 8.339,-3.099c5.373,0.686 10.876,4.718 12.801,9.379c1.269,3.073 0.871,6.178 -1.122,8.741c-1.935,2.491 -4.576,3.538 -7.346,3.538zM52.604,29.009c-1.517,0 -3.242,0.426 -4.429,2.002v0c-2.828,3.755 -0.266,8.41 3.311,11.146c3.662,2.801 8.96,4.07 11.944,0.229c1.34,-1.725 1.582,-3.66 0.717,-5.755c-1.495,-3.62 -6.164,-7.006 -10.408,-7.548c-0.355,-0.045 -0.738,-0.074 -1.135,-0.074zM46.978,30.108h0.01z" fill="#838694"></path><path d="M46.345,55.834c-0.07,0 -0.141,-0.005 -0.211,-0.015l-25.354,-3.604c-0.565,-0.08 -1.035,-0.474 -1.214,-1.016c-7.833,-23.762 4.225,-34.179 9.772,-37.554c11.652,-7.09 27.056,-2.872 37.155,4.454c0.556,0.402 0.767,1.132 0.513,1.77c-0.254,0.637 -0.915,1.019 -1.589,0.932c-11.549,-1.522 -19.428,0.312 -22.781,5.305c-3.726,5.549 -1.946,15.31 5.011,27.484c0.284,0.497 0.26,1.113 -0.061,1.587c-0.282,0.414 -0.749,0.657 -1.241,0.657zM22.131,49.377l21.454,3.05c-6.404,-12.155 -7.601,-21.798 -3.44,-27.993c3.33,-4.958 9.967,-7.385 19.357,-7.126c-8.84,-4.583 -19.948,-6.366 -28.604,-1.1c-6.044,3.678 -15.124,12.849 -8.767,33.169z" fill="#838694"></path></g></g></svg>